<svg width="48" height="48" viewBox="0 0 48 48" fill="none" xmlns="http://www.w3.org/2000/svg">
<rect x="20.5742" y="20.5713" width="6.85714" height="6.85714" fill="#0A0A0A"/>
<rect opacity="0.6" x="20.5742" y="27.4287" width="6.85714" height="6.85714" fill="#0A0A0A"/>
<rect opacity="0.32" x="27.4258" y="27.4287" width="6.85714" height="6.85714" fill="#0A0A0A"/>
<rect opacity="0.07" x="34.2852" y="27.4287" width="6.85714" height="6.85714" fill="#0A0A0A"/>
<rect opacity="0.32" x="13.7148" y="27.4287" width="6.85714" height="6.85714" fill="#0A0A0A"/>
<rect opacity="0.07" x="6.85742" y="27.4287" width="6.85714" height="6.85714" fill="#0A0A0A"/>
<rect opacity="0.32" x="20.5742" y="34.2856" width="6.85714" height="6.85714" fill="#0A0A0A"/>
<rect opacity="0.07" x="13.7148" y="34.2856" width="6.85714" height="6.85714" fill="#0A0A0A"/>
<rect opacity="0.07" x="27.4258" y="34.2856" width="6.85714" height="6.85714" fill="#0A0A0A"/>
<rect opacity="0.07" x="20.5742" y="41.1431" width="6.85714" height="6.85714" fill="#0A0A0A"/>
<rect opacity="0.6" x="13.7148" y="20.5713" width="6.85714" height="6.85714" fill="#0A0A0A"/>
<rect opacity="0.32" x="6.85742" y="20.5713" width="6.85714" height="6.85714" fill="#0A0A0A"/>
<rect opacity="0.07" y="20.5713" width="6.85714" height="6.85714" fill="#0A0A0A"/>
<rect opacity="0.6" x="27.4258" y="20.5713" width="6.85714" height="6.85714" fill="#0A0A0A"/>
<rect opacity="0.32" x="34.2852" y="20.5713" width="6.85714" height="6.85714" fill="#0A0A0A"/>
<rect opacity="0.07" x="41.1426" y="20.5713" width="6.85714" height="6.85714" fill="#0A0A0A"/>
<rect opacity="0.6" x="20.5742" y="13.7144" width="6.85714" height="6.85714" fill="#0A0A0A"/>
<rect opacity="0.32" x="13.7148" y="13.7144" width="6.85714" height="6.85714" fill="#0A0A0A"/>
<rect opacity="0.07" x="13.7148" y="6.85693" width="6.85714" height="6.85714" fill="#0A0A0A"/>
<rect opacity="0.07" x="6.85742" y="13.7144" width="6.85714" height="6.85714" fill="#0A0A0A"/>
<rect opacity="0.32" x="27.4258" y="13.7144" width="6.85714" height="6.85714" fill="#0A0A0A"/>
<rect opacity="0.07" x="27.4258" y="6.85693" width="6.85714" height="6.85714" fill="#0A0A0A"/>
<rect opacity="0.07" x="34.2852" y="13.7144" width="6.85714" height="6.85714" fill="#0A0A0A"/>
<rect opacity="0.32" x="20.5742" y="6.85693" width="6.85714" height="6.85714" fill="#0A0A0A"/>
<rect opacity="0.07" x="20.5742" width="6.85714" height="6.85714" fill="#0A0A0A"/>
</svg>
